<svg xmlns="http://www.w3.org/2000/svg" xmlns:xlink="http://www.w3.org/1999/xlink" width="259.331" height="132.4" viewBox="0 0 259.331 132.4">
  <defs>
    <clipPath id="clip-path">
      <rect id="Rectangle_14" data-name="Rectangle 14" width="259.331" height="132.401" fill="none"/>
    </clipPath>
  </defs>
  <g id="Groupe_2" data-name="Groupe 2" transform="translate(0 0)">
    <g id="Groupe_1" data-name="Groupe 1" transform="translate(0 0.001)" clip-path="url(#clip-path)">
      <path id="Tracé_3" data-name="Tracé 3" d="M14.264.854H0V40.2H14.208c11.877,0,19.813-7.492,19.813-19.646S26.085.854,14.264.854" transform="translate(0 0.411)" fill="#e95052"/>
      <path id="Tracé_4" data-name="Tracé 4" d="M25.349,40.2V.858H50.265V9.126H34.117v7.492h14.65V24.33H34.117v7.548h16.2V40.2Z" transform="translate(12.219 0.413)" fill="#1d1d1b"/>
      <path id="Tracé_5" data-name="Tracé 5" d="M65.8,13c-.277-1.83-1.775-4.937-6.548-4.937-3.274,0-5.383,2.053-5.383,4.215,0,1.888,1.165,3.274,3.884,3.775l5.272,1C70.517,18.441,74.4,23.27,74.4,28.873c0,6.161-5.162,12.43-14.539,12.43-10.877,0-15.537-7.046-16.093-12.6l8.046-1.94c.333,3.606,2.776,6.77,8.157,6.77,3.441,0,5.55-1.664,5.55-4.108,0-2-1.609-3.44-4.218-3.938l-5.383-1c-6.659-1.276-10.709-5.716-10.709-11.542C45.214,5.512,51.761.3,59.308.3c9.821,0,13.54,5.881,14.373,10.487Z" transform="translate(21.098 0.142)" fill="#1d1d1b"/>
      <rect id="Rectangle_7" data-name="Rectangle 7" width="8.771" height="39.345" transform="translate(99.965 1.269)" fill="#1d1d1b"/>
      <path id="Tracé_6" data-name="Tracé 6" d="M35.959,70.244V44.163L25.693,70.244h-7.1L8.324,44.5V70.244H0V30.9H11.432l10.822,26.58L32.519,30.9H44.561V70.244Z" transform="translate(0 14.894)" fill="#1d1d1b"/>
      <path id="Tracé_7" data-name="Tracé 7" d="M78.314,43.046c-.277-1.832-1.775-4.938-6.548-4.938-3.274,0-5.383,2.053-5.383,4.216,0,1.887,1.165,3.274,3.884,3.773l5.272,1c7.492,1.387,11.376,6.216,11.376,11.821,0,6.159-5.162,12.43-14.54,12.43-10.875,0-15.536-7.047-16.092-12.6l8.046-1.943c.333,3.607,2.776,6.77,8.157,6.77,3.441,0,5.55-1.664,5.55-4.107,0-2-1.609-3.44-4.218-3.939l-5.383-1c-6.659-1.276-10.709-5.716-10.709-11.542,0-7.437,6.548-12.652,14.094-12.652,9.821,0,13.54,5.881,14.373,10.487Z" transform="translate(27.13 14.623)" fill="#1d1d1b"/>
      <rect id="Rectangle_8" data-name="Rectangle 8" width="26.478" height="10.679" transform="translate(117.619 45.82)" fill="#e95052"/>
      <rect id="Rectangle_9" data-name="Rectangle 9" width="26.478" height="10.936" transform="translate(117.619 59.976)" fill="#e95052"/>
      <rect id="Rectangle_10" data-name="Rectangle 10" width="26.478" height="10.407" transform="translate(117.619 74.792)" fill="#e95052"/>
      <path id="Tracé_8" data-name="Tracé 8" d="M100.363,56.2V31.063h8.766V55.481c0,4.771,2.665,7.158,6.826,7.158s6.826-2.388,6.826-7.158V31.063h8.768V56.2c0,9.878-6.936,15.094-15.594,15.094S100.363,66.079,100.363,56.2" transform="translate(48.377 14.972)" fill="#1d1d1b"/>
      <path id="Tracé_9" data-name="Tracé 9" d="M160.4,70.407V44.326L150.139,70.407h-7.1L132.77,44.658V70.407h-8.323V31.063h11.431L146.7,57.644l10.266-26.58h12.041V70.407Z" transform="translate(59.986 14.972)" fill="#1d1d1b"/>
      <path id="Tracé_10" data-name="Tracé 10" d="M33.247,86.3H30.14v14.65H21.372V61.611H36.966c7.769,0,12.762,5.328,12.762,12.319a11.284,11.284,0,0,1-7.769,11.1l7.991,15.926H40.294ZM35.3,78.758c3.607,0,5.549-2,5.549-4.772,0-2.942-1.941-4.772-5.549-4.772H30.14v9.544Z" transform="translate(10.302 29.697)" fill="#1d1d1b"/>
      <path id="Tracé_11" data-name="Tracé 11" d="M43.117,87.33V62.192h8.768V86.608c0,4.772,2.663,7.16,6.826,7.16s6.825-2.388,6.825-7.16V62.192H74.3V87.33c0,9.878-6.936,15.094-15.592,15.094S43.117,97.208,43.117,87.33" transform="translate(20.783 29.977)" fill="#1d1d1b"/>
      <path id="Tracé_12" data-name="Tracé 12" d="M89.2,73.822c-.277-1.83-1.775-4.938-6.548-4.938-3.274,0-5.383,2.053-5.383,4.218,0,1.887,1.165,3.274,3.884,3.773l5.272,1C93.919,79.259,97.8,84.088,97.8,89.693c0,6.159-5.162,12.43-14.54,12.43-10.875,0-15.536-7.047-16.092-12.6l8.046-1.941c.333,3.607,2.776,6.77,8.157,6.77,3.441,0,5.55-1.664,5.55-4.107,0-2-1.609-3.44-4.218-3.939l-5.383-1c-6.659-1.276-10.709-5.716-10.709-11.542,0-7.437,6.548-12.652,14.094-12.652,9.821,0,13.54,5.881,14.373,10.488Z" transform="translate(32.378 29.458)" fill="#1d1d1b"/>
      <path id="Tracé_13" data-name="Tracé 13" d="M112.269,73.822c-.277-1.83-1.775-4.938-6.548-4.938-3.274,0-5.383,2.053-5.383,4.218,0,1.887,1.165,3.274,3.884,3.773l5.272,1c7.492,1.387,11.376,6.216,11.376,11.821,0,6.159-5.162,12.43-14.54,12.43-10.875,0-15.536-7.047-16.092-12.6l8.046-1.941c.333,3.607,2.776,6.77,8.157,6.77,3.441,0,5.55-1.664,5.55-4.107,0-2-1.609-3.44-4.218-3.939l-5.383-1c-6.659-1.276-10.709-5.716-10.709-11.542,0-7.437,6.548-12.652,14.094-12.652,9.821,0,13.54,5.881,14.373,10.488Z" transform="translate(43.497 29.458)" fill="#1d1d1b"/>
      <rect id="Rectangle_11" data-name="Rectangle 11" width="26.478" height="10.346" transform="translate(168.596 91.432)" fill="#e95052"/>
      <rect id="Rectangle_12" data-name="Rectangle 12" width="26.478" height="10.367" transform="translate(168.596 106.193)" fill="#e95052"/>
      <rect id="Rectangle_13" data-name="Rectangle 13" width="26.478" height="10.346" transform="translate(168.596 120.433)" fill="#e95052"/>
      <path id="Tracé_14" data-name="Tracé 14" d="M134.553,101.041V61.7h8.768V92.662H160.3v8.379Z" transform="translate(64.857 29.739)" fill="#1d1d1b"/>
      <path id="Tracé_15" data-name="Tracé 15" d="M176.346,73.864c-.277-1.83-1.775-4.938-6.548-4.938-3.274,0-5.383,2.053-5.383,4.218,0,1.887,1.165,3.274,3.884,3.773l5.272,1c7.492,1.387,11.376,6.216,11.376,11.821,0,6.159-5.162,12.43-14.54,12.43-10.875,0-15.536-7.047-16.092-12.6l8.046-1.941c.333,3.607,2.776,6.77,8.157,6.77,3.441,0,5.55-1.664,5.55-4.107,0-2-1.609-3.44-4.218-3.939l-5.383-1c-6.659-1.276-10.709-5.716-10.709-11.542,0-7.437,6.548-12.652,14.094-12.652,9.821,0,13.54,5.881,14.373,10.488Z" transform="translate(74.383 29.478)" fill="#1d1d1b"/>
      <path id="Tracé_16" data-name="Tracé 16" d="M21.2,80.588a8.81,8.81,0,0,0,5.771-8.437c0-6.048-4.5-10.543-12.265-10.543H0v39.348H15.872c7.437,0,12.32-4.717,12.32-11.155A9.21,9.21,0,0,0,21.2,80.588" transform="translate(0 29.695)" fill="#e95052"/>
      <path id="Tracé_17" data-name="Tracé 17" d="M107.5,40.176l-.554-4c-1.721,2.5-5.439,4.828-11.043,4.828-10.933,0-19.921-8.047-19.921-20.477C75.979,8.157,85.356,0,96.455,0c11.265,0,16.48,6.659,18.2,12.153l-8.434,2.942c-.611-2.442-3.219-6.881-9.766-6.881-5.328,0-11.6,3.551-11.6,12.319,0,8.213,5.439,12.486,11.821,12.486,6.491,0,9.211-4.218,9.71-6.436H94.568V19.145H114.6V40.176Z" transform="translate(36.623 -0.001)" fill="#1d1d1b"/>
      <path id="Tracé_18" data-name="Tracé 18" d="M33.69,56.037V31.207h8.661V55.324c0,4.714,2.631,7.071,6.742,7.071s6.742-2.356,6.742-7.071V31.207H64.5v24.83c0,9.756-6.853,14.909-15.4,14.909s-15.4-5.153-15.4-14.909" transform="translate(16.239 15.042)" fill="#1d1d1b"/>
      <path id="Tracé_19" data-name="Tracé 19" d="M107,.855h30.678v36.29Z" transform="translate(51.575 0.411)" fill="#e95052"/>
      <path id="Tracé_20" data-name="Tracé 20" d="M105.436,2.622l30.678,36.29H105.436Z" transform="translate(50.822 1.263)" fill="#e95052"/>
    </g>
  </g>
</svg>
