<svg xmlns="http://www.w3.org/2000/svg" xmlns:xlink="http://www.w3.org/1999/xlink" width="148.366" height="75.748" viewBox="0 0 148.366 75.748">
  <defs>
    <clipPath id="clip-path">
      <rect id="Rectangle_14" data-name="Rectangle 14" width="148.366" height="75.748" fill="none"/>
    </clipPath>
  </defs>
  <g id="Groupe_2" data-name="Groupe 2" transform="translate(0 0)">
    <g id="Groupe_1" data-name="Groupe 1" transform="translate(0 0.001)" clip-path="url(#clip-path)">
      <path id="Tracé_3" data-name="Tracé 3" d="M8.161.854H0V23.365H8.129c6.795,0,11.335-4.286,11.335-11.239S14.923.854,8.161.854" transform="translate(0 -0.13)" fill="#e95052"/>
      <path id="Tracé_4" data-name="Tracé 4" d="M25.349,23.366V.858H39.6v4.73H30.365V9.874h8.381v4.412H30.365V18.6h9.27v4.762Z" transform="translate(-3.856 -0.131)" fill="#1d1d1b"/>
      <path id="Tracé_5" data-name="Tracé 5" d="M56.374,7.566c-.159-1.047-1.016-2.824-3.746-2.824-1.873,0-3.079,1.174-3.079,2.411,0,1.08.666,1.873,2.222,2.16l3.016.571c4.286.794,6.508,3.556,6.508,6.762,0,3.525-2.953,7.111-8.318,7.111-6.223,0-8.889-4.031-9.207-7.207l4.6-1.11c.191,2.063,1.588,3.873,4.667,3.873,1.969,0,3.175-.952,3.175-2.35,0-1.143-.921-1.968-2.413-2.253l-3.079-.571c-3.81-.73-6.127-3.27-6.127-6.6C44.6,3.281,48.342.3,52.659.3c5.619,0,7.746,3.364,8.223,6Z" transform="translate(-6.658 -0.046)" fill="#1d1d1b"/>
      <rect id="Rectangle_7" data-name="Rectangle 7" width="5.018" height="22.509" transform="translate(57.191 0.726)" fill="#1d1d1b"/>
      <path id="Tracé_6" data-name="Tracé 6" d="M20.573,53.409V38.488L14.7,53.409H10.636L4.762,38.678V53.409H0V30.9H6.54l6.191,15.207L18.6,30.9h6.889V53.409Z" transform="translate(0 -4.701)" fill="#1d1d1b"/>
      <path id="Tracé_7" data-name="Tracé 7" d="M68.888,37.609c-.159-1.048-1.016-2.825-3.746-2.825-1.873,0-3.079,1.174-3.079,2.412,0,1.079.666,1.873,2.222,2.159l3.016.571c4.286.794,6.508,3.556,6.508,6.763,0,3.524-2.953,7.111-8.319,7.111-6.222,0-8.888-4.032-9.206-7.206l4.6-1.112c.191,2.064,1.588,3.873,4.667,3.873,1.969,0,3.175-.952,3.175-2.349,0-1.143-.921-1.968-2.413-2.254l-3.079-.571c-3.81-.73-6.127-3.27-6.127-6.6,0-4.255,3.746-7.238,8.063-7.238,5.619,0,7.746,3.364,8.223,6Z" transform="translate(-8.562 -4.616)" fill="#1d1d1b"/>
      <rect id="Rectangle_8" data-name="Rectangle 8" width="15.148" height="6.11" transform="translate(67.291 26.214)" fill="#e95052"/>
      <rect id="Rectangle_9" data-name="Rectangle 9" width="15.148" height="6.256" transform="translate(67.291 34.313)" fill="#e95052"/>
      <rect id="Rectangle_10" data-name="Rectangle 10" width="15.148" height="5.954" transform="translate(67.291 42.789)" fill="#e95052"/>
      <path id="Tracé_8" data-name="Tracé 8" d="M100.363,45.445V31.063h5.015v13.97c0,2.729,1.524,4.1,3.905,4.1s3.905-1.366,3.905-4.1V31.063H118.2V45.445c0,5.651-3.968,8.636-8.921,8.636s-8.921-2.985-8.921-8.636" transform="translate(-15.268 -4.726)" fill="#1d1d1b"/>
      <path id="Tracé_9" data-name="Tracé 9" d="M145.019,53.572V38.651l-5.873,14.921h-4.064l-5.873-14.731V53.572h-4.762V31.064h6.54l6.191,15.207,5.873-15.207h6.889V53.572Z" transform="translate(-18.931 -4.726)" fill="#1d1d1b"/>
      <path id="Tracé_10" data-name="Tracé 10" d="M28.166,75.738H26.388V84.12H21.372V61.611h8.921c4.445,0,7.3,3.048,7.3,7.048a6.456,6.456,0,0,1-4.445,6.35l4.572,9.111H32.2Zm1.174-4.317c2.064,0,3.174-1.143,3.174-2.73,0-1.683-1.111-2.73-3.174-2.73H26.388v5.46Z" transform="translate(-3.251 -9.373)" fill="#1d1d1b"/>
      <path id="Tracé_11" data-name="Tracé 11" d="M43.117,76.574V62.192h5.016V76.161c0,2.73,1.524,4.1,3.905,4.1s3.9-1.366,3.9-4.1V62.192h5.016V76.574c0,5.651-3.968,8.636-8.921,8.636s-8.921-2.985-8.921-8.636" transform="translate(-6.559 -9.461)" fill="#1d1d1b"/>
      <path id="Tracé_12" data-name="Tracé 12" d="M79.776,68.385c-.159-1.047-1.016-2.825-3.746-2.825-1.873,0-3.079,1.174-3.079,2.413,0,1.079.666,1.873,2.222,2.159l3.016.571c4.286.794,6.508,3.556,6.508,6.763,0,3.524-2.953,7.111-8.319,7.111-6.222,0-8.888-4.032-9.206-7.207l4.6-1.111c.191,2.064,1.588,3.873,4.667,3.873,1.969,0,3.175-.952,3.175-2.349,0-1.143-.921-1.968-2.413-2.254l-3.079-.571c-3.81-.73-6.127-3.27-6.127-6.6,0-4.255,3.746-7.238,8.063-7.238,5.619,0,7.746,3.364,8.223,6Z" transform="translate(-10.218 -9.297)" fill="#1d1d1b"/>
      <path id="Tracé_13" data-name="Tracé 13" d="M102.843,68.385c-.159-1.047-1.016-2.825-3.746-2.825-1.873,0-3.079,1.174-3.079,2.413,0,1.079.666,1.873,2.222,2.159l3.016.571c4.286.794,6.508,3.556,6.508,6.763,0,3.524-2.953,7.111-8.319,7.111-6.222,0-8.888-4.032-9.206-7.207l4.6-1.111c.191,2.064,1.588,3.873,4.667,3.873,1.969,0,3.175-.952,3.175-2.349,0-1.143-.921-1.968-2.413-2.254l-3.079-.571c-3.81-.73-6.127-3.27-6.127-6.6,0-4.255,3.746-7.238,8.063-7.238,5.619,0,7.746,3.364,8.223,6Z" transform="translate(-13.728 -9.297)" fill="#1d1d1b"/>
      <rect id="Rectangle_11" data-name="Rectangle 11" width="15.148" height="5.919" transform="translate(96.455 52.309)" fill="#e95052"/>
      <rect id="Rectangle_12" data-name="Rectangle 12" width="15.148" height="5.931" transform="translate(96.455 60.754)" fill="#e95052"/>
      <rect id="Rectangle_13" data-name="Rectangle 13" width="15.148" height="5.919" transform="translate(96.455 68.901)" fill="#e95052"/>
      <path id="Tracé_14" data-name="Tracé 14" d="M134.553,84.207V61.7h5.016V79.413h9.715v4.794Z" transform="translate(-20.469 -9.386)" fill="#1d1d1b"/>
      <path id="Tracé_15" data-name="Tracé 15" d="M166.92,68.427c-.159-1.047-1.016-2.825-3.746-2.825-1.873,0-3.079,1.174-3.079,2.413,0,1.079.666,1.873,2.222,2.159l3.016.571c4.286.794,6.508,3.556,6.508,6.763,0,3.524-2.953,7.111-8.319,7.111-6.222,0-8.888-4.032-9.206-7.207l4.6-1.111c.191,2.064,1.588,3.873,4.667,3.873,1.969,0,3.175-.952,3.175-2.349,0-1.143-.921-1.968-2.413-2.254L161.269,75c-3.81-.73-6.127-3.27-6.127-6.6,0-4.255,3.746-7.238,8.063-7.238,5.619,0,7.746,3.364,8.223,6Z" transform="translate(-23.475 -9.304)" fill="#1d1d1b"/>
      <path id="Tracé_16" data-name="Tracé 16" d="M12.13,72.467a5.04,5.04,0,0,0,3.3-4.827c0-3.46-2.572-6.032-7.017-6.032H0V84.119H9.081c4.255,0,7.048-2.7,7.048-6.382a5.269,5.269,0,0,0-4-5.27" transform="translate(0 -9.372)" fill="#e95052"/>
      <path id="Tracé_17" data-name="Tracé 17" d="M94.011,22.985,93.694,20.7c-.984,1.429-3.112,2.762-6.318,2.762-6.255,0-11.4-4.6-11.4-11.715A11.438,11.438,0,0,1,87.693,0c6.445,0,9.428,3.81,10.413,6.953L93.281,8.636A5.422,5.422,0,0,0,87.693,4.7c-3.048,0-6.635,2.032-6.635,7.048,0,4.7,3.112,7.143,6.763,7.143,3.714,0,5.27-2.413,5.555-3.682H86.614V10.953H98.075V22.985Z" transform="translate(-11.558 0)" fill="#1d1d1b"/>
      <path id="Tracé_18" data-name="Tracé 18" d="M33.69,45.412V31.207h4.955V45c0,2.7,1.5,4.045,3.857,4.045S46.359,47.7,46.359,45v-13.8h4.955V45.412c0,5.582-3.921,8.53-8.812,8.53s-8.812-2.948-8.812-8.53" transform="translate(-5.125 -4.748)" fill="#1d1d1b"/>
      <path id="Tracé_19" data-name="Tracé 19" d="M107,.855H124.55V21.617Z" transform="translate(-16.277 -0.13)" fill="#e95052"/>
      <path id="Tracé_20" data-name="Tracé 20" d="M105.436,2.622l17.551,20.762H105.436Z" transform="translate(-16.039 -0.399)" fill="#e95052"/>
    </g>
  </g>
</svg>
