<?xml version="1.0" standalone="no"?>
<!DOCTYPE svg PUBLIC "-//W3C//DTD SVG 20010904//EN"
 "http://www.w3.org/TR/2001/REC-SVG-20010904/DTD/svg10.dtd">
<svg version="1.0" xmlns="http://www.w3.org/2000/svg"
 width="1184.000000pt" height="1184.000000pt" viewBox="0 0 1184.000000 1184.000000"
 preserveAspectRatio="xMidYMid meet">
<metadata>
Created by potrace 1.14, written by Peter Selinger 2001-2017
</metadata>
<g transform="translate(0.000000,1184.000000) scale(0.100000,-0.100000)"
fill="#000000" stroke="none">
<path d="M5920 8930 c-19 -4 -50 -10 -68 -14 -195 -38 -409 -182 -537 -361
-37 -51 -98 -158 -100 -175 0 -3 -9 -30 -20 -60 -10 -30 -20 -59 -21 -65 -1
-5 -7 -37 -14 -70 -13 -60 -16 -264 -6 -320 20 -110 27 -138 47 -196 77 -226
232 -402 446 -508 56 -28 183 -70 233 -78 55 -8 303 -10 328 -2 15 4 56 17 91
28 80 25 161 74 217 130 24 24 44 40 45 35 0 -5 2 -16 4 -25 1 -8 6 -42 10
-75 3 -32 8 -61 11 -63 3 -4 197 -5 291 -2 l32 1 -2 478 -2 477 -440 1 c-242
1 -447 0 -455 -2 -13 -3 -15 -30 -16 -166 0 -90 3 -165 7 -168 4 -3 125 -4
269 -4 l262 1 -7 -24 c-8 -34 -59 -113 -92 -144 -61 -57 -152 -102 -233 -116
-53 -9 -171 -10 -205 -1 -16 4 -43 9 -60 12 -45 8 -165 71 -205 108 -93 86
-141 177 -168 313 -9 42 -7 212 2 264 24 140 118 280 232 347 212 124 498 97
631 -60 54 -64 63 -76 63 -89 0 -6 7 -21 15 -31 8 -11 15 -27 15 -37 0 -20 8
-18 247 66 157 55 150 46 115 125 -8 19 -16 38 -16 41 -1 3 -21 36 -45 74 -41
63 -173 205 -192 205 -4 0 -14 6 -21 13 -7 7 -24 18 -38 25 -14 7 -38 20 -53
28 -38 21 -153 60 -202 70 -22 4 -47 9 -55 12 -28 8 -305 10 -340 2z"/>
<path d="M3699 8925 c-3 -2 -36 -6 -74 -9 -143 -11 -226 -40 -342 -119 -232
-158 -313 -447 -192 -687 52 -104 148 -190 276 -246 52 -23 183 -54 358 -85
173 -30 249 -103 231 -222 -16 -99 -121 -157 -276 -150 -175 7 -295 97 -335
252 -10 40 -15 46 -36 44 -33 -3 -52 -7 -66 -16 -7 -5 -13 -6 -13 -3 0 2 -15
0 -32 -5 -18 -5 -44 -12 -58 -14 -14 -3 -56 -13 -95 -23 l-70 -19 3 -42 c6
-92 84 -241 173 -329 78 -78 223 -158 319 -176 14 -3 48 -9 75 -15 47 -9 283
-8 315 2 8 2 34 8 58 12 23 4 42 11 42 15 0 3 6 7 14 7 21 0 137 59 171 88 31
26 92 85 111 107 37 45 85 149 100 217 20 92 2 251 -36 321 -8 14 -15 27 -15
30 -3 28 -155 190 -178 190 -5 0 -21 8 -35 18 -27 19 -121 58 -157 67 -11 2
-39 9 -63 15 -23 5 -58 13 -78 16 -20 3 -45 8 -55 10 -11 2 -27 6 -38 8 -10 2
-36 7 -57 10 -146 24 -216 83 -212 181 5 146 187 230 368 170 70 -23 141 -93
160 -157 12 -41 17 -45 38 -42 14 3 33 9 44 15 10 5 18 8 18 5 0 -2 28 5 63
16 34 11 73 22 87 24 14 3 47 12 73 21 41 13 48 19 44 37 -3 12 -8 31 -11 44
-9 39 -53 129 -82 169 -101 137 -273 224 -466 237 -25 2 -50 6 -56 10 -5 3
-11 4 -13 1z"/>
<path d="M20 8882 c-16 -6 -14 -1789 2 -1794 21 -6 681 -1 750 6 134 13 222
37 333 91 106 51 128 67 220 160 59 60 152 193 160 230 1 5 5 17 8 25 45 111
66 235 67 391 2 496 -297 833 -786 885 -61 6 -736 12 -754 6z"/>
<path d="M1745 8882 c-20 -3 -20 -7 -21 -897 l0 -895 36 -1 c35 -1 1002 0
1070 1 l35 0 -2 167 c-1 93 -2 177 -2 189 -1 21 -3 21 -338 22 -186 0 -352 1
-369 1 l-31 1 1 170 1 170 332 0 333 0 1 30 c2 141 0 310 -4 317 -3 4 -152 8
-331 7 -223 0 -326 3 -329 10 -2 6 -3 83 -3 171 l1 160 368 0 367 0 0 190 0
190 -548 0 c-301 0 -556 -1 -567 -3z"/>
<path d="M4570 7988 c0 -494 3 -898 8 -899 29 -3 370 -4 380 -1 18 6 18 1792
0 1793 -7 0 -97 1 -201 2 l-187 2 0 -897z"/>
<path d="M7259 8880 c-4 -3 2 -18 14 -32 12 -14 40 -48 62 -74 71 -85 160
-189 165 -194 3 -3 62 -72 130 -155 69 -82 127 -152 130 -155 3 -3 66 -77 140
-165 74 -88 139 -165 145 -171 11 -12 75 -87 130 -154 20 -25 41 -46 46 -48 5
-2 9 -10 9 -17 0 -7 4 -15 8 -17 5 -1 53 -55 106 -118 54 -63 117 -137 139
-164 23 -26 49 -57 57 -68 38 -49 100 -112 101 -103 7 55 2 1628 -5 1633 -12
7 -1365 9 -1377 2z"/>
<path d="M7139 8743 c0 -28 -1 -1617 0 -1628 1 -10 1376 -14 1386 -3 4 4 -160
207 -184 228 -3 3 -24 27 -46 55 -22 27 -47 57 -55 65 -8 9 -37 43 -65 75 -27
33 -52 62 -55 65 -3 3 -24 28 -45 55 -22 28 -43 52 -46 55 -3 3 -48 55 -98
115 -129 153 -172 203 -203 237 -16 17 -28 33 -28 37 0 3 -20 27 -43 52 -23
26 -49 55 -57 65 -17 22 -170 203 -185 220 -5 6 -30 35 -55 64 -25 30 -59 70
-76 89 -17 20 -56 66 -87 104 -37 43 -57 61 -58 50z"/>
<path d="M4360 6870 c-73 -19 -184 -65 -226 -95 -157 -111 -243 -264 -249
-441 -3 -97 6 -151 36 -219 12 -27 23 -52 23 -55 2 -11 63 -87 91 -113 16 -16
53 -43 80 -61 46 -29 67 -40 128 -65 37 -16 144 -41 237 -56 210 -34 272 -62
309 -140 32 -69 14 -142 -48 -198 -17 -15 -31 -25 -31 -23 0 2 -21 -4 -47 -14
-44 -16 -160 -20 -213 -8 -109 27 -187 85 -229 170 -17 35 -32 75 -34 90 -1
15 -5 29 -8 32 -4 4 -38 -2 -151 -30 -10 -2 -26 -6 -35 -8 -10 -2 -47 -12 -83
-21 -36 -9 -72 -18 -80 -20 -37 -6 26 -196 98 -295 34 -46 114 -130 125 -130
4 0 17 -8 28 -19 17 -16 118 -71 144 -78 6 -1 40 -11 76 -22 140 -40 334 -43
466 -5 209 59 366 205 423 393 15 50 19 88 16 161 -4 110 -6 122 -40 195 -45
98 -108 169 -206 229 -53 33 -143 73 -185 82 -25 6 -161 34 -195 40 -137 26
-171 34 -202 47 -123 53 -136 210 -24 289 24 17 46 30 48 29 1 -2 17 3 33 9
40 16 172 15 190 0 8 -7 15 -10 15 -6 0 10 79 -33 101 -55 32 -32 69 -90 69
-108 1 -42 12 -42 188 8 95 26 175 50 177 53 3 2 -2 29 -11 59 -62 208 -226
352 -454 399 -97 20 -272 20 -350 0z"/>
<path d="M12 5953 l3 -898 185 0 185 0 5 580 c3 356 8 572 14 560 28 -62 188
-472 189 -482 0 -7 4 -13 9 -13 4 0 8 -8 8 -18 0 -10 3 -22 8 -26 4 -4 7 -11
8 -14 0 -4 6 -20 13 -37 7 -16 33 -82 57 -145 25 -63 50 -126 56 -140 7 -14
12 -27 13 -30 1 -3 5 -14 10 -25 4 -11 25 -63 45 -115 l38 -95 148 0 c82 -1
156 1 164 3 9 2 46 82 93 205 43 111 83 211 88 222 11 25 120 303 160 410 17
44 34 84 40 90 5 5 9 19 9 32 0 13 4 23 10 23 5 0 9 3 8 8 -2 4 13 47 32 96
l35 90 5 -590 5 -589 189 0 c168 0 189 2 195 17 4 12 6 1729 2 1771 -1 4 -124
7 -275 7 l-273 0 -63 -162 c-35 -90 -87 -226 -117 -303 -30 -77 -77 -198 -105
-270 -28 -71 -51 -136 -51 -142 0 -7 -4 -13 -9 -13 -4 0 -8 -6 -8 -14 0 -23
-111 -296 -121 -296 -5 0 -9 6 -9 14 0 12 -60 165 -90 231 -5 11 -44 106 -86
210 -42 105 -92 228 -111 275 -20 47 -43 104 -52 126 -9 23 -43 109 -76 192
l-60 152 -263 0 -262 0 2 -897z"/>
<path d="M5377 6843 c-3 -7 -2 -423 2 -464 1 -14 60 -16 600 -16 541 0 600 2
603 16 3 14 2 442 -1 464 0 4 -271 7 -600 7 -330 0 -601 -3 -604 -7z"/>
<path d="M6880 6840 l-85 -5 1 -620 c1 -341 4 -633 7 -650 15 -89 73 -246 97
-265 3 -3 17 -21 30 -40 61 -89 173 -167 314 -216 97 -35 287 -49 396 -30 74
13 92 17 155 40 166 60 308 193 368 345 50 124 51 136 53 804 1 345 -2 630 -6
632 -11 7 -381 7 -387 1 -3 -3 -6 -276 -7 -608 -1 -467 -4 -608 -14 -625 -7
-13 -10 -23 -7 -23 10 0 -47 -85 -74 -109 -54 -49 -108 -66 -216 -65 -107 0
-158 16 -217 67 -31 27 -74 107 -84 157 -4 19 -8 297 -8 617 -1 320 -4 584 -7
588 -8 8 -205 11 -309 5z"/>
<path d="M8598 6840 l-174 -5 0 -892 c0 -491 3 -894 6 -894 32 -7 370 -2 373
6 1 5 2 268 2 584 -1 603 -3 586 35 486 4 -11 22 -56 40 -100 18 -44 36 -89
40 -100 7 -18 25 -62 65 -160 7 -16 36 -91 65 -165 29 -74 58 -148 65 -165 8
-16 46 -111 85 -210 l71 -181 162 1 162 0 53 135 c29 74 57 144 62 155 5 11
34 85 65 165 30 80 63 163 73 185 9 21 17 42 18 45 0 3 4 14 9 25 10 25 83
208 101 255 7 19 29 75 47 124 19 49 36 85 39 80 2 -5 4 -270 3 -589 l0 -580
195 0 195 0 0 894 c0 491 -3 895 -7 898 -13 7 -531 4 -539 -5 -6 -5 -110 -262
-115 -282 0 -3 -6 -18 -13 -35 -6 -16 -16 -41 -21 -55 -5 -14 -15 -38 -21 -55
-7 -16 -13 -32 -14 -35 -1 -3 -5 -14 -10 -25 -4 -11 -23 -60 -42 -110 -19 -49
-38 -99 -43 -110 -5 -11 -16 -42 -26 -70 -10 -27 -21 -54 -24 -60 -4 -5 -11
-21 -15 -35 -4 -14 -27 -77 -52 -140 -24 -63 -49 -127 -55 -143 -17 -43 -24
-41 -47 16 -11 28 -26 66 -32 82 -7 17 -13 32 -14 35 -1 3 -7 19 -14 35 -19
42 -16 36 -151 365 -66 162 -123 304 -125 314 -3 11 -9 24 -15 30 -5 5 -10 16
-10 23 0 7 -9 35 -21 61 -12 26 -25 56 -30 67 -35 82 -42 101 -43 107 -4 31
-69 36 -358 28z"/>
<path d="M2289 6813 c0 -10 -1 -286 -1 -613 0 -689 0 -692 85 -855 75 -146
225 -257 413 -305 38 -9 163 -24 209 -23 59 0 170 15 226 31 279 80 456 303
469 592 4 101 6 1163 2 1178 -3 9 -52 12 -201 12 l-196 0 0 -593 c0 -542 -1
-596 -18 -643 -39 -112 -125 -172 -259 -182 -177 -12 -291 66 -325 221 -4 18
-7 294 -7 614 l-1 583 -197 0 c-182 0 -198 -1 -199 -17z"/>
<path d="M5376 6200 c-2 -5 0 -481 3 -490 1 -7 1201 -7 1202 0 5 23 2 474 -3
483 -5 8 -181 11 -603 11 -328 1 -598 -1 -599 -4z"/>
<path d="M5384 5522 c-7 -6 -12 -401 -5 -457 1 -7 195 -11 601 -11 l600 -1 1
21 c4 56 4 432 1 443 -3 9 -147 12 -596 12 -326 0 -596 -3 -602 -7z"/>
<path d="M5164 4798 c-3 -5 -9 -6 -14 -3 -16 10 -133 -25 -204 -61 -218 -110
-332 -290 -327 -519 2 -88 15 -143 53 -218 67 -134 253 -262 423 -291 17 -3
55 -10 85 -16 30 -6 64 -13 75 -15 31 -5 87 -15 119 -21 33 -7 91 -37 120 -63
36 -31 54 -87 45 -137 -21 -111 -111 -163 -270 -158 -116 3 -211 41 -266 104
-33 38 -71 111 -76 149 -3 18 -9 37 -14 41 -4 5 -60 -5 -123 -21 -63 -16 -124
-31 -135 -33 -11 -2 -39 -9 -62 -15 -38 -10 -42 -14 -38 -39 9 -77 52 -181
106 -257 30 -43 99 -121 99 -112 0 3 14 -8 32 -24 41 -40 177 -104 258 -123
300 -71 570 -9 744 169 150 153 194 378 113 569 -53 127 -171 237 -317 294
-49 20 -203 58 -270 68 -213 30 -287 70 -305 166 -17 89 64 192 169 214 28 6
135 6 164 0 80 -17 170 -94 193 -165 6 -20 14 -39 18 -43 3 -4 47 4 96 18 50
14 128 36 173 47 l84 22 -5 38 c-6 40 -62 166 -93 206 -47 59 -125 124 -189
156 -38 20 -73 35 -77 36 -4 0 -25 6 -46 13 -21 8 -61 17 -88 22 -69 10 -244
12 -250 2z"/>
<path d="M6727 4803 c-2 -1 -21 -5 -43 -8 -52 -8 -97 -22 -164 -53 -302 -137
-429 -475 -282 -756 25 -47 143 -176 162 -176 5 0 15 -6 22 -12 41 -39 181
-85 343 -113 17 -3 41 -7 55 -10 14 -3 49 -9 79 -15 137 -25 206 -94 203 -203
-2 -57 -79 -137 -148 -153 -67 -15 -182 -11 -245 9 -35 10 -65 23 -67 28 -2 5
-9 9 -15 9 -17 0 -74 56 -102 99 -13 21 -29 63 -36 93 -15 63 -8 61 -124 31
-33 -8 -67 -16 -75 -18 -8 -2 -33 -8 -55 -13 -22 -6 -51 -13 -65 -16 -65 -12
-67 -15 -46 -93 39 -147 136 -287 251 -362 22 -14 42 -28 45 -31 18 -18 173
-75 229 -85 82 -13 123 -16 191 -16 119 2 102 0 220 26 90 19 203 82 275 152
114 109 169 233 169 383 0 98 -7 133 -36 204 -82 194 -267 307 -588 360 -59
10 -180 37 -202 45 -108 41 -139 179 -60 264 28 30 89 65 126 73 41 9 134 5
177 -6 88 -24 170 -104 186 -181 5 -25 9 -30 27 -24 12 3 30 8 40 10 10 2 74
20 142 40 68 19 130 35 139 35 8 0 15 8 15 18 0 23 -26 105 -42 134 -7 13 -13
25 -13 28 -2 19 -46 75 -112 141 -37 38 -203 140 -203 124 0 -2 -18 2 -39 10
-22 7 -56 17 -78 20 -38 7 -251 14 -256 8z"/>
<path d="M11087 4804 c-1 -1 -22 -5 -47 -9 -25 -3 -54 -9 -65 -12 -11 -4 -24
-7 -30 -8 -44 -5 -186 -82 -243 -132 -127 -110 -190 -249 -190 -417 -1 -175
76 -320 218 -415 103 -69 177 -95 355 -126 17 -3 41 -7 55 -10 14 -3 51 -10
82 -15 140 -26 210 -87 210 -185 0 -45 -24 -101 -51 -123 -53 -42 -97 -56
-187 -59 -215 -6 -345 90 -386 288 -3 15 -10 14 -83 -3 -44 -11 -87 -21 -95
-23 -8 -2 -15 -4 -15 -5 0 -1 -9 -3 -19 -5 -11 -2 -50 -11 -87 -20 l-67 -17 5
-36 c24 -157 139 -328 281 -418 49 -32 159 -80 202 -89 8 -2 16 -4 18 -5 19
-16 311 -34 337 -21 5 3 18 6 30 7 112 13 259 81 344 160 119 110 176 236 176
389 0 101 -5 130 -31 195 -72 182 -250 308 -504 356 -14 2 -77 14 -140 26 -63
11 -134 30 -158 41 -111 51 -130 179 -41 268 48 48 95 64 189 63 117 -1 160
-15 225 -77 33 -32 79 -120 68 -131 -13 -13 28 -4 167 35 80 22 153 42 163 44
9 2 21 6 26 9 8 6 -9 90 -22 102 -4 4 -7 15 -7 24 0 10 -7 23 -15 30 -9 7 -13
15 -11 18 8 7 -53 91 -94 130 -121 116 -277 172 -488 177 -40 1 -73 0 -75 -1z"/>
<path d="M21 4772 c-8 -3 -11 -280 -11 -898 l0 -895 428 4 c235 2 434 6 442 9
8 3 29 8 45 13 80 21 179 79 237 140 35 36 95 130 103 161 59 230 26 383 -109
506 -40 36 -131 88 -154 88 -24 0 -11 16 29 35 59 28 136 110 172 185 28 59
31 74 32 160 0 111 -5 137 -36 210 -61 142 -208 246 -389 276 -45 7 -769 13
-789 6z"/>
<path d="M1461 4770 c-4 -3 -7 -405 -6 -895 l0 -890 168 -2 c93 -1 174 -4 180
-6 7 -2 21 -1 32 3 20 7 20 16 20 329 0 178 2 327 6 332 3 6 35 9 70 7 l64 -3
47 -95 c97 -194 268 -552 268 -561 0 -5 94 -9 220 -9 121 0 220 4 220 9 0 4
-79 165 -175 357 -96 192 -175 351 -175 354 0 3 27 18 59 34 32 15 84 50 115
78 57 51 126 146 126 173 0 8 5 15 12 15 6 0 8 3 5 6 -3 4 -2 14 3 24 16 31
24 83 24 175 0 77 -7 154 -14 163 -2 1 -3 5 -4 10 -1 4 -10 30 -20 57 -25 65
-68 129 -126 185 -45 43 -56 51 -124 90 -33 18 -125 47 -180 57 -40 6 -806 10
-815 3z m731 -357 c71 -20 132 -81 145 -143 5 -23 4 -92 -1 -117 -13 -59 -70
-119 -141 -148 -35 -14 -333 -16 -337 -2 -4 10 -3 418 1 424 5 10 295 -3 333
-14z"/>
<path d="M7700 4535 c0 -217 1 -235 18 -236 58 -3 1169 -4 1180 -1 9 3 12 60
12 238 l0 234 -605 0 -605 0 0 -235z"/>
<path d="M9108 4763 c-2 -5 -3 -408 -3 -898 l1 -890 587 -1 587 0 1 40 c2 163
-1 329 -6 334 -4 4 -174 7 -378 7 -205 0 -376 3 -382 7 -7 4 -10 250 -9 707
l0 701 -197 0 c-109 0 -199 -3 -201 -7z"/>
<path d="M2940 4732 c-14 -2 -15 -76 -14 -630 1 -546 3 -636 17 -695 49 -201
151 -332 331 -427 32 -16 66 -30 75 -30 9 0 21 -4 26 -9 18 -17 169 -40 265
-39 201 0 372 60 499 174 75 68 156 199 178 289 3 11 9 38 15 60 11 43 20
1304 9 1306 -3 1 -93 2 -198 3 -126 1 -193 -2 -194 -9 0 -5 -1 -275 -2 -600
-2 -562 -3 -593 -22 -645 -27 -74 -94 -141 -163 -164 -126 -42 -260 -20 -350
58 -32 28 -69 102 -78 157 -4 24 -8 305 -8 624 l-1 580 -185 0 c-102 0 -192
-1 -200 -3z"/>
<path d="M7700 3859 l0 -236 605 0 605 0 0 236 0 236 -605 0 -605 0 0 -236z"/>
<path d="M7700 3210 l0 -236 603 1 602 0 0 235 0 235 -602 0 -603 1 0 -236z"/>
</g>
</svg>
