<svg id="Groupe_24" data-name="Groupe 24" xmlns="http://www.w3.org/2000/svg" xmlns:xlink="http://www.w3.org/1999/xlink" width="148.375" height="75.753" viewBox="0 0 148.375 75.753">
  <defs>
    <clipPath id="clip-path">
      <rect id="Rectangle_72" data-name="Rectangle 72" width="148.375" height="75.753" fill="none"/>
    </clipPath>
  </defs>
  <g id="Groupe_23" data-name="Groupe 23" clip-path="url(#clip-path)">
    <path id="Tracé_41" data-name="Tracé 41" d="M8.161,2.127H0V24.64H8.129c6.8,0,11.336-4.287,11.336-11.241S14.924,2.127,8.161,2.127" transform="translate(0 -1.402)" fill="#e55c6d"/>
    <path id="Tracé_42" data-name="Tracé 42" d="M63.034,24.644V2.133H77.289V6.864H68.05V11.15h8.382v4.413H68.05v4.318h9.271v4.763Z" transform="translate(-41.539 -1.406)" fill="#1d1d1b"/>
    <path id="Tracé_43" data-name="Tracé 43" d="M121.447,8.008c-.159-1.048-1.016-2.826-3.746-2.826-1.873,0-3.08,1.175-3.08,2.413,0,1.08.667,1.873,2.223,2.159l3.016.572c4.286.794,6.509,3.556,6.509,6.763,0,3.524-2.953,7.112-8.319,7.112-6.223,0-8.89-4.032-9.208-7.207l4.6-1.111c.191,2.064,1.587,3.873,4.667,3.873,1.969,0,3.175-.952,3.175-2.349,0-1.143-.921-1.969-2.413-2.255l-3.08-.572c-3.81-.73-6.128-3.27-6.128-6.6,0-4.254,3.746-7.239,8.064-7.239,5.62,0,7.747,3.366,8.223,6Z" transform="translate(-71.727 -0.486)" fill="#1d1d1b"/>
    <rect id="Rectangle_64" data-name="Rectangle 64" width="5.018" height="22.511" transform="translate(57.195 0.727)" fill="#1d1d1b"/>
    <rect id="Rectangle_65" data-name="Rectangle 65" width="5.018" height="22.511" transform="translate(88.775 0.727)" fill="#1d1d1b"/>
    <path id="Tracé_44" data-name="Tracé 44" d="M20.574,99.35V84.427L14.7,99.35H10.637L4.763,84.618V99.35H0V76.839H6.541l6.191,15.208,5.874-15.208H25.5V99.35Z" transform="translate(0 -50.637)" fill="#1d1d1b"/>
    <path id="Tracé_45" data-name="Tracé 45" d="M152.563,82.714c-.159-1.048-1.016-2.826-3.746-2.826-1.873,0-3.08,1.175-3.08,2.413,0,1.08.667,1.873,2.223,2.159l3.016.572c4.286.794,6.509,3.556,6.509,6.763,0,3.524-2.953,7.112-8.319,7.112-6.223,0-8.89-4.032-9.208-7.207l4.6-1.111c.191,2.064,1.587,3.873,4.667,3.873,1.969,0,3.175-.952,3.175-2.349,0-1.143-.921-1.969-2.413-2.255l-3.08-.572c-3.81-.73-6.128-3.27-6.128-6.6,0-4.255,3.746-7.239,8.064-7.239,5.62,0,7.747,3.366,8.223,6Z" transform="translate(-92.233 -49.717)" fill="#1d1d1b"/>
    <rect id="Rectangle_66" data-name="Rectangle 66" width="15.149" height="6.11" transform="translate(67.295 26.217)" fill="#e55c6d"/>
    <rect id="Rectangle_67" data-name="Rectangle 67" width="15.149" height="6.257" transform="translate(67.295 34.315)" fill="#e55c6d"/>
    <rect id="Rectangle_68" data-name="Rectangle 68" width="15.149" height="5.954" transform="translate(67.295 42.793)" fill="#e55c6d"/>
    <path id="Tracé_46" data-name="Tracé 46" d="M249.564,91.626V77.243h5.017V91.214c0,2.73,1.524,4.1,3.905,4.1s3.905-1.365,3.905-4.1V77.243h5.017V91.626c0,5.651-3.969,8.636-8.922,8.636s-8.922-2.985-8.922-8.636" transform="translate(-164.464 -50.904)" fill="#1d1d1b"/>
    <path id="Tracé_47" data-name="Tracé 47" d="M330.025,99.754V84.832l-5.874,14.923h-4.064l-5.874-14.732V99.754h-4.763V77.243h6.541l6.191,15.208,5.874-15.208h6.889V99.754Z" transform="translate(-203.93 -50.904)" fill="#1d1d1b"/>
    <path id="Tracé_48" data-name="Tracé 48" d="M59.937,167.334H58.159v8.382H53.142v-22.51h8.922c4.445,0,7.3,3.048,7.3,7.048a6.457,6.457,0,0,1-4.445,6.35l4.572,9.112H63.969Zm1.175-4.318c2.064,0,3.175-1.143,3.175-2.731,0-1.682-1.111-2.731-3.175-2.731H58.159v5.461Z" transform="translate(-35.021 -100.964)" fill="#1d1d1b"/>
    <path id="Tracé_49" data-name="Tracé 49" d="M107.215,169.031V154.648h5.017v13.97c0,2.73,1.524,4.1,3.905,4.1s3.905-1.365,3.905-4.1v-13.97h5.017v14.383c0,5.651-3.969,8.636-8.922,8.636s-8.922-2.985-8.922-8.636" transform="translate(-70.655 -101.914)" fill="#1d1d1b"/>
    <path id="Tracé_50" data-name="Tracé 50" d="M179.64,159.244c-.159-1.048-1.016-2.826-3.746-2.826-1.873,0-3.08,1.175-3.08,2.413,0,1.08.667,1.873,2.223,2.159l3.016.572c4.286.794,6.509,3.556,6.509,6.763,0,3.524-2.953,7.112-8.319,7.112-6.223,0-8.89-4.032-9.208-7.207l4.6-1.111c.191,2.064,1.587,3.873,4.667,3.873,1.969,0,3.175-.952,3.175-2.349,0-1.143-.921-1.969-2.413-2.255l-3.08-.572c-3.81-.73-6.128-3.27-6.128-6.6,0-4.255,3.746-7.239,8.064-7.239,5.62,0,7.747,3.366,8.223,6Z" transform="translate(-110.077 -100.151)" fill="#1d1d1b"/>
    <path id="Tracé_51" data-name="Tracé 51" d="M237,159.244c-.159-1.048-1.016-2.826-3.746-2.826-1.873,0-3.08,1.175-3.08,2.413,0,1.08.667,1.873,2.223,2.159l3.016.572c4.286.794,6.509,3.556,6.509,6.763,0,3.524-2.953,7.112-8.319,7.112-6.223,0-8.89-4.032-9.208-7.207l4.6-1.111c.191,2.064,1.587,3.873,4.667,3.873,1.969,0,3.175-.952,3.175-2.349,0-1.143-.921-1.969-2.413-2.255l-3.08-.572c-3.81-.73-6.128-3.27-6.128-6.6,0-4.255,3.746-7.239,8.064-7.239,5.62,0,7.747,3.366,8.223,6Z" transform="translate(-147.875 -100.151)" fill="#1d1d1b"/>
    <rect id="Rectangle_69" data-name="Rectangle 69" width="15.149" height="5.919" transform="translate(96.462 52.314)" fill="#e55c6d"/>
    <rect id="Rectangle_70" data-name="Rectangle 70" width="15.149" height="5.931" transform="translate(96.462 60.759)" fill="#e55c6d"/>
    <rect id="Rectangle_71" data-name="Rectangle 71" width="15.149" height="5.919" transform="translate(96.462 68.907)" fill="#e55c6d"/>
    <path id="Tracé_52" data-name="Tracé 52" d="M334.585,175.93V153.419H339.6v17.716h9.715v4.794Z" transform="translate(-220.493 -101.104)" fill="#1d1d1b"/>
    <path id="Tracé_53" data-name="Tracé 53" d="M396.334,159.345c-.159-1.048-1.016-2.826-3.746-2.826-1.873,0-3.08,1.175-3.08,2.413,0,1.08.667,1.873,2.223,2.159l3.016.571c4.286.794,6.509,3.556,6.509,6.763,0,3.524-2.953,7.112-8.319,7.112-6.223,0-8.89-4.032-9.208-7.207l4.6-1.111c.191,2.064,1.587,3.873,4.667,3.873,1.969,0,3.175-.952,3.175-2.349,0-1.143-.921-1.969-2.413-2.255l-3.08-.572c-3.81-.73-6.128-3.27-6.128-6.6,0-4.255,3.746-7.239,8.064-7.239,5.62,0,7.747,3.366,8.223,6Z" transform="translate(-252.879 -100.218)" fill="#1d1d1b"/>
    <path id="Tracé_54" data-name="Tracé 54" d="M12.131,164.059a5.041,5.041,0,0,0,3.3-4.827c0-3.461-2.572-6.033-7.018-6.033H0v22.513H9.082c4.255,0,7.049-2.7,7.049-6.382a5.269,5.269,0,0,0-4-5.271" transform="translate(-0.001 -100.959)" fill="#e55c6d"/>
    <path id="Tracé_55" data-name="Tracé 55" d="M206.967,22.987l-.318-2.286c-.984,1.429-3.112,2.762-6.318,2.762-6.255,0-11.4-4.6-11.4-11.716A11.439,11.439,0,0,1,200.649,0c6.445,0,9.43,3.81,10.414,6.953l-4.826,1.683A5.422,5.422,0,0,0,200.649,4.7c-3.048,0-6.636,2.032-6.636,7.048,0,4.7,3.112,7.144,6.763,7.144,3.714,0,5.27-2.413,5.556-3.683H199.57V10.954h11.462V22.987Z" transform="translate(-124.508)" fill="#1d1d1b"/>
    <path id="Tracé_56" data-name="Tracé 56" d="M83.777,91.81V77.6h4.955V91.4c0,2.7,1.505,4.045,3.857,4.045S96.446,94.1,96.446,91.4V77.6H101.4V91.81c0,5.582-3.92,8.53-8.812,8.53s-8.812-2.948-8.812-8.53" transform="translate(-55.209 -51.141)" fill="#1d1d1b"/>
    <path id="Tracé_57" data-name="Tracé 57" d="M287.52,2.129l17.621,0V23.209Z" transform="translate(-189.477 -1.402)" fill="#e55c6d"/>
    <path id="Tracé_58" data-name="Tracé 58" d="M283.836,6.818l17.482,20.913H283.836Z" transform="translate(-187.049 -4.493)" fill="#e55c6d"/>
  </g>
</svg>
