<svg id="Groupe_24" data-name="Groupe 24" xmlns="http://www.w3.org/2000/svg" xmlns:xlink="http://www.w3.org/1999/xlink" width="298.777" height="152.54" viewBox="0 0 298.777 152.54">
  <defs>
    <clipPath id="clip-path">
      <rect id="Rectangle_72" data-name="Rectangle 72" width="298.777" height="152.54" fill="none"/>
    </clipPath>
  </defs>
  <g id="Groupe_23" data-name="Groupe 23" clip-path="url(#clip-path)">
    <path id="Tracé_41" data-name="Tracé 41" d="M16.433,2.127H0V47.461H16.368c13.683,0,22.827-8.633,22.827-22.635s-9.143-22.7-22.762-22.7" transform="translate(0 -0.667)" fill="#e55c6d"/>
    <path id="Tracé_42" data-name="Tracé 42" d="M63.033,47.462V2.133H91.74v9.526h-18.6v8.632H90.014v8.887H73.135v8.694H91.8v9.59Z" transform="translate(-19.752 -0.668)" fill="#1d1d1b"/>
    <path id="Tracé_43" data-name="Tracé 43" d="M134.223,15.378c-.319-2.109-2.046-5.69-7.543-5.69-3.772,0-6.2,2.365-6.2,4.859,0,2.174,1.343,3.772,4.476,4.348l6.073,1.151c8.631,1.6,13.107,7.16,13.107,13.618,0,7.1-5.946,14.321-16.751,14.321-12.531,0-17.9-8.12-18.541-14.512l9.27-2.238c.384,4.156,3.2,7.8,9.4,7.8,3.964,0,6.393-1.918,6.393-4.73,0-2.3-1.854-3.965-4.859-4.54l-6.2-1.151c-7.672-1.47-12.339-6.584-12.339-13.3,0-8.567,7.544-14.576,16.238-14.576,11.317,0,15.6,6.777,16.559,12.083Z" transform="translate(-34.106 -0.231)" fill="#1d1d1b"/>
    <rect id="Rectangle_64" data-name="Rectangle 64" width="10.105" height="45.329" transform="translate(115.17 1.465)" fill="#1d1d1b"/>
    <rect id="Rectangle_65" data-name="Rectangle 65" width="10.105" height="45.329" transform="translate(178.761 1.465)" fill="#1d1d1b"/>
    <path id="Tracé_44" data-name="Tracé 44" d="M41.429,122.168V92.119L29.6,122.168H21.418L9.591,92.5v29.665H0V76.839H13.171l12.467,30.624L37.466,76.839H51.339v45.329Z" transform="translate(0 -24.078)" fill="#1d1d1b"/>
    <path id="Tracé_45" data-name="Tracé 45" d="M165.339,90.084c-.319-2.11-2.046-5.69-7.543-5.69-3.772,0-6.2,2.365-6.2,4.859,0,2.174,1.344,3.772,4.476,4.348l6.073,1.151c8.631,1.6,13.107,7.16,13.107,13.618,0,7.1-5.946,14.321-16.751,14.321-12.531,0-17.9-8.119-18.541-14.512l9.27-2.238c.384,4.156,3.2,7.8,9.4,7.8,3.964,0,6.393-1.918,6.393-4.73,0-2.3-1.854-3.965-4.859-4.54l-6.2-1.151c-7.672-1.47-12.339-6.584-12.339-13.3,0-8.567,7.543-14.577,16.238-14.577,11.317,0,15.6,6.777,16.559,12.083Z" transform="translate(-43.856 -23.64)" fill="#1d1d1b"/>
    <rect id="Rectangle_66" data-name="Rectangle 66" width="30.505" height="12.303" transform="translate(135.509 52.792)" fill="#e55c6d"/>
    <rect id="Rectangle_67" data-name="Rectangle 67" width="30.505" height="12.6" transform="translate(135.509 69.099)" fill="#e55c6d"/>
    <rect id="Rectangle_68" data-name="Rectangle 68" width="30.505" height="11.99" transform="translate(135.509 86.171)" fill="#e55c6d"/>
    <path id="Tracé_46" data-name="Tracé 46" d="M249.564,106.206V77.243h10.1v28.132c0,5.5,3.069,8.247,7.863,8.247s7.863-2.749,7.863-8.247V77.243h10.1v28.963c0,11.38-7.992,17.39-17.965,17.39s-17.965-6.01-17.965-17.39" transform="translate(-78.202 -24.204)" fill="#1d1d1b"/>
    <path id="Tracé_47" data-name="Tracé 47" d="M350.88,122.572V92.523l-11.827,30.049h-8.183L319.042,92.907v29.665h-9.59V77.244h13.171l12.467,30.624,11.828-30.624H360.79v45.329Z" transform="translate(-96.968 -24.205)" fill="#1d1d1b"/>
    <path id="Tracé_48" data-name="Tracé 48" d="M66.824,181.656h-3.58v16.878h-10.1V153.206H71.107c8.95,0,14.7,6.137,14.7,14.193a13,13,0,0,1-8.95,12.787l9.206,18.349H74.944Zm2.365-8.694c4.156,0,6.393-2.3,6.393-5.5,0-3.388-2.238-5.5-6.393-5.5H63.244v11Z" transform="translate(-16.652 -48.008)" fill="#1d1d1b"/>
    <path id="Tracé_49" data-name="Tracé 49" d="M107.215,183.61V154.648h10.1v28.131c0,5.5,3.069,8.247,7.863,8.247s7.863-2.749,7.863-8.247V154.648h10.1V183.61c0,11.38-7.992,17.39-17.965,17.39s-17.965-6.01-17.965-17.39" transform="translate(-33.596 -48.46)" fill="#1d1d1b"/>
    <path id="Tracé_50" data-name="Tracé 50" d="M192.416,166.614c-.319-2.11-2.046-5.69-7.543-5.69-3.772,0-6.2,2.366-6.2,4.859,0,2.174,1.343,3.772,4.476,4.348l6.073,1.151c8.631,1.6,13.107,7.16,13.107,13.618,0,7.1-5.946,14.321-16.751,14.321-12.531,0-17.9-8.119-18.541-14.512l9.27-2.238c.384,4.156,3.2,7.8,9.4,7.8,3.964,0,6.393-1.918,6.393-4.73,0-2.3-1.854-3.965-4.859-4.54l-6.2-1.151c-7.672-1.47-12.339-6.584-12.339-13.3,0-8.567,7.543-14.577,16.238-14.577,11.317,0,15.6,6.777,16.559,12.083Z" transform="translate(-52.341 -47.621)" fill="#1d1d1b"/>
    <path id="Tracé_51" data-name="Tracé 51" d="M249.773,166.614c-.319-2.11-2.045-5.69-7.543-5.69-3.772,0-6.2,2.366-6.2,4.859,0,2.174,1.344,3.772,4.476,4.348l6.073,1.151c8.631,1.6,13.107,7.16,13.107,13.618,0,7.1-5.946,14.321-16.751,14.321-12.531,0-17.9-8.119-18.541-14.512l9.27-2.238c.384,4.156,3.2,7.8,9.4,7.8,3.964,0,6.393-1.918,6.393-4.73,0-2.3-1.854-3.965-4.859-4.54l-6.2-1.151c-7.672-1.47-12.339-6.584-12.339-13.3,0-8.567,7.543-14.577,16.238-14.577,11.317,0,15.6,6.777,16.559,12.083Z" transform="translate(-70.314 -47.621)" fill="#1d1d1b"/>
    <rect id="Rectangle_69" data-name="Rectangle 69" width="30.505" height="11.919" transform="translate(194.24 105.342)" fill="#e55c6d"/>
    <rect id="Rectangle_70" data-name="Rectangle 70" width="30.505" height="11.944" transform="translate(194.24 122.347)" fill="#e55c6d"/>
    <rect id="Rectangle_71" data-name="Rectangle 71" width="30.505" height="11.919" transform="translate(194.24 138.755)" fill="#e55c6d"/>
    <path id="Tracé_52" data-name="Tracé 52" d="M334.585,198.748V153.419h10.1v35.675H364.25v9.654Z" transform="translate(-104.844 -48.075)" fill="#1d1d1b"/>
    <path id="Tracé_53" data-name="Tracé 53" d="M409.11,166.715c-.319-2.11-2.045-5.69-7.543-5.69-3.772,0-6.2,2.365-6.2,4.859,0,2.174,1.343,3.772,4.476,4.348l6.073,1.151c8.631,1.6,13.107,7.16,13.107,13.618,0,7.1-5.946,14.321-16.751,14.321-12.531,0-17.9-8.119-18.541-14.512L393,182.57c.384,4.156,3.2,7.8,9.4,7.8,3.964,0,6.393-1.918,6.393-4.73,0-2.3-1.854-3.965-4.859-4.54l-6.2-1.151c-7.672-1.47-12.339-6.584-12.339-13.3,0-8.567,7.543-14.577,16.238-14.577,11.317,0,15.6,6.777,16.559,12.083Z" transform="translate(-120.243 -47.653)" fill="#1d1d1b"/>
    <path id="Tracé_54" data-name="Tracé 54" d="M24.426,175.067a10.15,10.15,0,0,0,6.65-9.72c0-6.969-5.18-12.148-14.131-12.148H0v45.333H18.288c8.569,0,14.194-5.435,14.194-12.851a10.61,10.61,0,0,0-8.056-10.614" transform="translate(0 -48.006)" fill="#e55c6d"/>
    <path id="Tracé_55" data-name="Tracé 55" d="M225.248,46.287l-.64-4.6c-1.981,2.877-6.266,5.562-12.722,5.562-12.6,0-22.952-9.27-22.952-23.591C188.933,9.4,199.738,0,212.525,0c12.978,0,18.988,7.672,20.97,14l-9.718,3.389c-.7-2.813-3.708-7.928-11.252-7.928-6.138,0-13.362,4.092-13.362,14.193,0,9.462,6.266,14.385,13.618,14.385,7.48,0,10.613-4.859,11.188-7.416H210.352V22.057h23.08v24.23Z" transform="translate(-59.203)" fill="#1d1d1b"/>
    <path id="Tracé_56" data-name="Tracé 56" d="M83.777,106.21V77.6h9.977v27.785c0,5.431,3.032,8.146,7.767,8.146s7.767-2.715,7.767-8.146V77.6h9.978V106.21c0,11.24-7.894,17.176-17.745,17.176S83.777,117.45,83.777,106.21" transform="translate(-26.252 -24.318)" fill="#1d1d1b"/>
    <path id="Tracé_57" data-name="Tracé 57" d="M287.52,2.132l35.483,0V44.579Z" transform="translate(-90.096 -0.667)" fill="#e55c6d"/>
    <path id="Tracé_58" data-name="Tracé 58" d="M283.836,6.818l35.2,42.112h-35.2Z" transform="translate(-88.941 -2.137)" fill="#e55c6d"/>
  </g>
</svg>
